<?xml version="1.0" encoding="utf-8"?>
<!-- Generator: Adobe Illustrator 23.1.0, SVG Export Plug-In . SVG Version: 6.00 Build 0)  -->
<svg version="1.1" id="Layer_1" xmlns="http://www.w3.org/2000/svg" xmlns:xlink="http://www.w3.org/1999/xlink" x="0px" y="0px"
	 viewBox="0 0 1541.3 762.7" style="enable-background:new 0 0 1541.3 762.7;" xml:space="preserve">
<style type="text/css">
	.st0{fill:#030303;stroke:#030303;stroke-miterlimit:10.43;}
	.st1{fill:none;}
	.st2{fill:#030303;stroke:#030303;stroke-width:2.5;stroke-miterlimit:10;}
	.st3{fill:none;stroke:#030303;stroke-width:7;stroke-miterlimit:10.43;}
</style>
<g id="XMLID_738_">
	<g id="XMLID_742_">
		<path id="XMLID_770_" class="st0" d="M1477.3,419.7c-1.7-6.2-5-12.9-11.4-15.3c-7.2-2.6-14.7-0.1-21.6,2c-5.6-1.2-10.7-3.8-16-5.8
			c-38.9-15-77.8-30.1-116.6-45.3c-2.6-10.3-4.5-23.1-15.1-28.3c-17.2-7.1-34.8-13.3-52-20.3c-5.4-2.4-11.4-2.1-17.2-2.3
			c5.2-18.1,9.5-36.6,15-54.6c2.3-7.5,8-13.4,14.8-16.9c5.6-2.9,10.8-7,17.1-8.4c6.6,3.6,11.5,9.9,18.1,13.7
			c17.6,11.3,39,14.2,59.4,12.4c40.4-5,75.2-38.3,82.4-78.3c3-19.2,1.7-39.7-7.2-57.3c-10.8-22.7-31.7-40.5-56.2-46.7
			c-34.4-9.6-73.1,3.4-96.2,30.2c-14.7,18.3-24.9,41.4-23.3,65.4c-0.8,10.8,2.6,21.1,5.8,31.3c-9.3,6.7-20.5,10.5-29,18.5
			c-8.4,7.4-14.3,17.4-17.5,28.1c-6.8,23.2-12.1,46.9-19.6,69.9c-24.6-7.4-49.3-14.8-75-17c-16.1-0.4-32.5-1.3-48.2,2.8
			c-24.3,5.3-46,18.6-64.5,34.8c-14.3,12.2-28.1,25.4-44.6,34.6c-7.4,4.1-15.2,8.3-23.8,9c-0.2-8.3,0.5-16.7-0.3-25
			c-3.4-9.6-12.8-15.6-21.7-19.6c-24-10.2-50.7-11.4-76.4-9.9c-16.4,2.2-33.2,5.1-47.7,13.6c-5,3.1-10.2,6.8-12.7,12.3
			c-4,8.6-2,18.2-2.5,27.4c-2.4,0-4.7,0.1-7,0.1c-0.8-9.9,1.9-20.8-3.5-29.7c-7.4-10.8-20.7-14.8-32.5-18.6c-14.2-3.8-29-6-43.8-5.5
			c-19.1-0.5-38.4,2.3-56.4,8.9c-10.3,4.3-22,10.7-25,22.5c-0.9,7.8-0.1,15.7-0.4,23.6c-12.4-3.2-23.7-9.8-34.3-16.8
			c-19.5-14.1-35.8-32.4-56.5-44.9c-14.4-9.8-31.1-15.2-48.1-18.5c-39.1-5.8-78.2,3.8-115.1,16c-7.6-24.5-13.5-49.6-21-74.2
			c-3-8.5-7.8-16.4-14.4-22.5c-8.7-8.6-20.1-13.4-30.5-19.4c3-10.4,6.5-20.9,5.5-31.9c1.5-18.2-4.2-36.2-13.5-51.7
			c-13-23-36.6-38.9-62.1-44.8c-24.1-5-50.6-1.1-70.7,13.7c-17.6,11.7-30.3,30.4-35.1,50.9c-6.7,26.1-1.1,54.9,14.2,76.9
			c8,13.1,20.6,22.4,33.4,30.4c13.2,7.4,28.2,12.3,43.5,11.5c16.8,0.9,34-3.3,48.5-11.9c6.7-3.8,11.8-9.6,17.8-14.2
			c4.7-0.9,8.5,3,12.5,4.8c8.8,4.7,18.3,10.6,21.1,20.9c4.9,18,10.1,36,14.6,54.1c-5.9,0-12-0.5-17.5,2c-16.6,6.8-33.4,13.1-50,19.7
			c-7.9,3-13,10.6-14.4,18.8c-1.3,4.2-0.5,10.5-6,11.8c-28.7,11-57.4,22.3-86.1,33.3c-14.4,5.2-28.3,11.8-42.9,16.4
			c-8.6-3-19.9-6-27.1,1.5c-7.2,8.1-8.5,19.9-7.4,30.3c2.2,17.4,9.6,34.9,23.4,46.3c5.1,5.2,12.4,6.8,19.1,8.5
			c4.3-2,9.3-3.5,12.4-7.5c2.6-3.2,3.6-7.4,6.4-10.5c3.2-2,6.9-3.2,10.4-4.5c39.3-15,78.4-30.3,117.6-45.7c7.3-3.6,12.3,5,18,8.1
			c-0.6,2-1.1,3.9-1.7,5.9c-32.8,7.2-63.4,22.1-91.5,40.2c-16.3,11.5-31.6,24.3-45.2,38.8c-3.7,3.9-6,9-5.2,14.4
			c-0.2,6.8,5.5,11.1,10.4,14.7c6.8,0.2,14.8-0.1,19.1-6.3c5.4-7,2.8-16.3-1.2-23.3c30.8-24.2,67.1-41.1,105.2-49.7
			c6.8-1.6,13.9-2.3,20.9-2.2c6.4,0.4,12.7,3.8,19.1,1.5c8.5-2.8,16.7-6.7,25.2-9.8c6.2-2.2,11.3-6.4,16.2-10.7
			c3.8-3.8,9.6-2.9,14.3-4.7c3.7-2.3,6.1-6,8.7-9.5c4.6,0,9.9,0.2,13.2-3.6c6.3-7.8,17.1-7.2,26.1-9.1c15.7-1.2,31.5-4,47.2-1.3
			c40.5,2,79.7,14.2,116.6,30.2c5.9,1.8,11.2,4.8,16.4,7.9c4.2,2.4,8.8,4.3,12.4,7.7c-3.4,0.2-6.8,0.3-10.1,0.2
			c-2-2.2-4-4.5-6.2-6.5c-21.4-12.4-47.8-10.3-70.6-3.5c-6.5,3.2-10.1,9.8-9.4,17c-5.9,4-11.7,8.5-14.8,15.1c2,1.1,3.9,2.2,5.9,3.3
			c1.9-2.8,3.7-5.6,5.6-8.4c2.1,5.3,3.7,11.5,9.2,14.3c4.6-1.7,9.3-3.4,14.1-4.7c-3.8-0.3-7.5-0.7-11.2-1.5c-3-1.4-5.8-3.1-8.5-5
			c0.8-0.3,2.5-0.8,3.3-1.1c1.7-0.6,3.5-1.2,5.3-1.7c1.9-0.6,3.8-1.2,5.7-1.7c14.3-4.2,29.4-3.4,44.1-3.5
			c15.3,0.2,30.5-0.5,45.8,0.6c2-3.4,3-8.9,7.8-9.3c4.6-0.5,9.5,0.1,13.8,2.1c2,3.4,2.7,7.4,3.8,11.1c15.6-15.7,36.1-25.5,56.9-32.4
			c-20,1.2-37.9,11.7-55.9,19.5c32.7-22.6,72.3-32.6,111.3-37.3c18-1.3,36-0.9,54-0.4c26.5,2.5,52.8,8.3,77.8,17.7
			c14.5,5.7,29,12.4,40.3,23.2c-18.5-10.3-37.9-21.2-59.4-22.7c18.2,5.9,35.8,14.5,50.8,26.6c2.9,2.1,4.8,5.3,6.2,8.5
			c1,1.3,2,3,3.5,3.6c0.2,0.1,0.3,0.1,0.5,0.2c0.2,0,0.3,0.1,0.5,0c0,0,0.1,0,0.2,0h0.2c0.9,0.1,1.8,0,2.6-0.2
			c0.6-0.2,1.2-0.4,1.7-0.7c0.3-0.1,0.6-0.3,0.8-0.5c1.5-1,2.8-2.2,4.2-3.2c-2.3-0.1-4.6-0.1-6.9-0.2c3.1-2.9,5.6-7.3,9.8-8.3
			c6,1.9,11,6.3,17.4,7.3c0.8-0.1,2.4-0.3,3.1-0.5c-3.8-1.3-7.5-2.7-11.2-4.2c13.2-1.5,26.4,0.8,39.7,0.1
			c13.1,0.4,26.3-1.3,39.3,1.3c8.3,0.7,16.4,3.1,23.3,7.9c-5.1-0.9-10.2-2.3-15.4-1.6c3.7,2.5,7.8,4.3,12,6c2.9-1.6,5.8-3.3,8.7-4.9
			c3.5,3,8.7,5.6,8.8,10.8c2.8,15.8,2.2,31.9,2.7,47.9c3.8-10.6,0-21.6,1.5-32.4c1.1-8.7,0.6-17.8-2.7-26
			c-2.8-6.5-8.7-10.7-14.4-14.5c-0.5-3.7,0.2-7.9-2.3-11c-3.4-4.9-9.4-6.9-14.8-8.8c-14.9-4.5-30.9-4-46.1-1.7
			c-7.6,2.3-15.8,4.9-20.6,11.6c-3.7,5.9-11.4,3.1-17.1,3.7c9.4-7.6,20.9-12.1,31.8-17.1c32.2-14.5,66.3-24.9,101.4-29.1
			c26.1-1.6,52.7-2.4,78.4,3.4c5.3,1.2,8.2,6.5,12.8,9c3.1,0.8,6.3,0.5,9.5,0.5c2.5,3.3,4.6,7.2,8.3,9.4c4.6,2.3,9.8,1.6,14.7,2.5
			c5.3,4.3,10,9.3,16.4,12c8.9,3.9,18,7.1,27,10.5c6.5,2.8,13.2-0.7,19.8-1.3c11.1-0.3,22,2.3,32.6,5.2c33.8,9,65.5,25.3,93.2,46.6
			c-3.8,7.3-6.7,17.5-0.3,24.3c6.8,8.1,21.1,7.1,26.5-1.9c3-4.2,2.1-9.5,2.5-14.4c-6.9-10.6-16.8-18.7-26-27.2
			c-32.8-28.2-72.4-48.3-114.2-59c-2.6-0.5-3.9-3.4-3.2-5.8c3.6-4,8.3-6.7,12.4-10c33.3,12.1,66.2,25.6,99.3,38.3
			c11.1,4.9,23,8.1,33.8,13.6c3.8,6,6.9,13,13.8,16.1c6.1,0.7,12.7,0.9,18.1-2.4c14.6-8.8,23.1-24.7,27.5-40.7
			C1478.1,438.8,1478.1,429.2,1477.3,419.7z M77.2,420.9c-3.5,5.7-2.1,12.7-2.4,19c-0.3,6.9,1.3,13.6,2.1,20.4
			c-6.2-11.5-8.7-25.1-6.2-37.9c2-8.6,9.9-16.3,19.3-12.9C85.9,413.3,79.6,415.3,77.2,420.9z M96.9,447c-5.6-7.9-6.8-19.2-3.1-28.2
			c0.8-2.1,3.2-2.9,4.8-4.3C98.7,425.4,96,436.1,96.9,447z M123,417.1c-1.7,6.4-0.3,13.2-1.2,19.7c-5.5-8.7-6.8-20.7-1.8-29.9
			c1.1-0.1,3.2-0.3,4.3-0.3C124.2,410,124,413.6,123,417.1z M147.7,411.2c-0.2,5.2,0.3,10.5-0.4,15.7c-5.5-8.7-6.7-20.8-1.7-30.1
			c1.2-0.1,3.5-0.3,4.7-0.4C149.6,401.4,148.4,406.3,147.7,411.2z M172.9,416.9c-5.9-8.7-7.3-21.8-0.8-30.6c1,0,3.1,0,4.1,0
			C172.7,396.2,173.1,406.7,172.9,416.9z M199.3,406.6c-2-1.1-3.5-2.8-3.9-5.1c-3.1-7-3.4-15.3,0.5-22c0.1-0.6,0.3-1.8,0.4-2.4
			c1.7-0.3,3.4-0.6,5.1-0.9C199,386.1,197.2,396.4,199.3,406.6z M225.3,373.9c-0.4,8.5-0.2,17.1-0.4,25.7c-1.8-1.5-5-3-3.9-5.9
			c-3-9.6-4.9-22.6,4.7-29.1C226.3,367.7,226.2,370.9,225.3,373.9z M151.6,536.1c-2,3.8-6.5,4.5-10,6.1c3.6-5.2,7.3-10.4,10.4-16
			C153,529.4,153.7,533.1,151.6,536.1z M168.9,497.5c-9.5,5.7-17.7,13.4-27.2,19.2c5.2-7.9,13.5-12.9,20.4-19.2
			c16.3-11.8,34-22.2,53.3-28.3C200,478.9,183.7,486.9,168.9,497.5z M529.5,467.2c-5.5,0.5-11,2-16.5,1.9c1-2.2,2.8-3.7,5.1-4.4
			c12.3-4.8,25.8-3.9,38.6-2.9c4.2,1.3,10.1,0.5,12.6,4.6C556,467.3,542.7,465.3,529.5,467.2z M1020.6,463.7
			c3.7,0.6,6.9,2.8,9.8,5.1c-9.1,0.5-17.9-2.9-27-2.5c-10.7-0.4-21.4,1-32-0.7C987,459.7,1004.5,460,1020.6,463.7z M1389.8,535
			c-0.6-2.6-0.6-5.3-0.6-7.9c4.6,3.8,6.6,9.9,9.4,15C1395.4,540.1,1391.9,538.2,1389.8,535z M1380.8,498.4
			c6.6,5.8,14.5,10.5,19.3,18.1c-9.3-5.8-17.6-13.1-26.8-19.1c-15.1-10.1-31.2-18.7-46.7-28.3
			C1346.2,475.5,1364.4,485.9,1380.8,498.4z M1420,145.2c0.5,7.9,0.5,15.8-0.1,23.7c-3.7,19.5-13.8,38.1-29.9,50.2
			c-10.5,7.6-22.5,13.2-35.2,16c-10.3,0.3-21,1.6-31.1-1.5c-14.2-3.5-26.6-12.3-36.5-22.8c1-1.4,2.1-2.9,3.1-4.3
			c3.9,0.4,6,4.1,8.8,6.5c5.1,5.3,11.6,9,18.2,12.2c-6.8-5.5-14.3-10.6-19-18.1c-0.1-0.9-0.1-2.9-0.2-3.8
			c13.2-7.1,26-14.6,39.1-21.9c2.7-2,6.2-1.2,9.4-1.3c7.7,0.3,15.2-5.4,17.2-12.8c2.2-6.6,0.2-14.2-4.7-19.1c-5.2-6.2-14-3.8-21-3.7
			c-4.3,2.7-8.2,6.5-9.4,11.5c-1.3,2.6-0.9,6.3-3.6,8.1c-12.1,6.9-24.5,13.5-36.4,20.7c-5.5-9.7-3.2-21.2,0.6-31
			c1.1-2.6,2.9-5.2,5.9-5.8c10.1-2.5,20.7-1.3,31-1.1c6.3-7,16.2-12.4,25.7-9.1c9.8,2.2,17.3,11.3,18.7,21.1
			c0.2,3.8-0.1,7.7-0.2,11.5c5.1,5.6,11,10.7,14.2,17.7c3.6,6.5,4.7,14,4.9,21.4c9.1-9.7,17.1-20.8,20.4-33.9
			c4.9-17.2,3.3-36.6-6.2-52c-9.4-17.4-28.2-28-47.3-31c-2,0-4,0.2-6,0.4c4,1.5,7.3,4.1,10.3,7c1.7,9.1-6.5,15.7-14,18.8
			c-6.3,3.1-13.6,2.6-20.4,2.5c-6.2,0.1-12.8-3.5-14.8-9.7c0.9-3.4,2.6-6.6,4.1-9.8c-23.7,12.6-37.4,39.3-38.3,65.5
			c0.9,7.2,2.5,14.4,5.1,21.3c-2.4,1-4.8,1.9-7.3,2.3c-3.3-9.7-4.3-20-4-30.2c-0.6-22.2,11.8-43.1,28.2-57.3
			c13.8-12.2,32.2-18.5,50.6-18.9c19.3,0.6,38.3,8.7,51.8,22.6C1411,117.9,1418,131,1420,145.2z M1342.8,154.8
			c-4.6,2.5-5.8,7.8-7.8,12.2c-1.5-5.2-0.8-10.9,3.9-14.3c6-6.6,16.8-2.7,19.6,5.1C1353.9,154.6,1348.2,153.1,1342.8,154.8z
			 M1342,170.7c3.6-3.3,7.6-7.5,12.9-5.1C1356.2,172.7,1346,175.8,1342,170.7z M1367.8,114.3c0-2.8,0.1-5.6,0.3-8.4
			c2.7-0.3,5.5-0.4,8.3-0.5c1.9,3,3,8.3-1.3,9.7C1372.8,116.9,1370,115.2,1367.8,114.3z M1276.2,115.2c10.3-17.3,27.4-29.8,46.3-36
			c12.1-4.2,25.1-3.5,37.6-2.3c12.4,2.1,23.6,8.2,33.6,15.5c-28.5-17.9-67.8-17.3-94.8,3.2c-7.4,6.6-15,13.4-20.1,22.1
			c-5.4,8.5-8.6,18.1-11.3,27.7c-1.3,7.2-0.3,14.7-1.9,21.9C1263,149.4,1266.3,130.6,1276.2,115.2z M1212.5,278.1
			c3.8-13,7.3-26.1,11.1-39.1c3.9-9.2,10.3-17.8,19.2-22.8c21.3-12.6,43.3-23.9,65.2-35.6c-6.4,6.8-15.2,10.3-22.8,15.5
			c-10.9,6.5-22.2,12.5-33.1,19.1c-5.6,3.3-11.4,6.4-15.7,11.5c-6.9,7.5-9.2,17.7-11.8,27.3c-5.8,21.5-11,43.1-17.5,64.3
			c-1.2-0.1-3.6-0.3-4.8-0.4C1204.1,304.4,1209.2,291.5,1212.5,278.1z M888.3,340c0.8,0,2.4-0.1,3.2-0.1c1.4,3.2,1.8,6.7,1.8,10.2
			c-1.7-0.2-3.3-0.4-5-0.5C888.3,346.4,888.3,343.2,888.3,340z M816.1,345.9c2.2-8.2,11.4-10.9,18.9-11.6
			c15.3-0.5,30.6-0.3,45.9,0.2c2.3,4.2,1.9,9,1.8,13.6c-20.3-1.8-41.1-2.9-61.2,1.5C819,351,814.2,348.9,816.1,345.9z M719.8,338.9
			c4.1,2.2,5.3,6.3,4.7,10.7c-1.6,0.1-3.2,0.1-4.7,0.2C719.6,346.2,719.6,342.5,719.8,338.9z M724.5,357.7c-0.3,6.3,0.8,12.8-0.9,19
			c-0.9-0.1-2.7-0.2-3.6-0.3c-0.4-6.3-0.2-12.6-0.3-18.9C721.2,357.6,722.8,357.6,724.5,357.7z M662.6,334.7
			c16.7-2.4,33.6-1.3,50.4,0.2c0.4,4.5,0.4,9,0.2,13.4c-14.3-1.8-28.8-2.3-43.2-1.4c-7.7,0.6-15.2,2.7-22.8,2.9
			C645.3,340.4,655.2,336.4,662.6,334.7z M187,76.7c8.7,0,17.6-0.8,26.3,0.8c24.6,5.9,46.9,22.8,57.4,46.1
			c3.4,6.6,4.6,14.1,6.9,21.1l0.4-1.3c0.8,7.9,0.8,16-0.8,23.8c-2.1-5.1-2.7-10.8-1.6-16.2c-1.9-18-11-34.5-23.2-47.6
			c-17.3-17.3-42.5-26.6-66.9-23.6c-11.9,1.1-23.3,5.5-33.9,10.9C162.3,83.9,173.9,77.1,187,76.7z M212.1,235.2
			c-7.8,0.4-15.6,0.5-23.3,0c-23.4-4.4-45.7-18.6-57-40c-6.1-11.7-10.8-24.7-10-38.1c-1.1-26.4,14.3-52.5,37.8-64.5
			c13.2-6,28-10,42.6-7.4c17.2,2.2,33.7,10.1,45.6,22.8c8.9,7.9,14.6,18.6,19.3,29.4c4.6,11.6,3.9,24.3,3.5,36.5
			c0,6.2-2.2,12.1-4.2,17.9c-2.1-1.2-4.2-2.4-6.3-3.5c3.4-9.9,6.1-20.7,4-31.2c-2.7-15-8.9-29.6-19.1-41
			c-5.5-6.2-12.6-10.6-19.1-15.6c2,4.3,6.5,9.2,3.3,14c-5.2,8.8-16.8,6.7-25.4,6.5c-9.1-1.8-19.5-6.4-22.3-16.1
			c-1.6-6.5,5.3-10.2,10.3-12c-6-1.3-11.8,1-17.5,2.4c-21.6,6.4-38.9,25.2-43.4,47.3c-5.4,23.8,4.1,49.2,21.3,66
			c1.7-7.2,1.6-15.1,5.8-21.5c3.7-7,9.6-12.3,14.8-18c-6.5-16,9-34.7,25.7-32.3c6.9,0.9,12.5,5.1,17.1,9.9c10.9,0,22-1.5,32.6,1.5
			c4.2,2.4,5.4,7.4,6.8,11.7c2.5,7.7,1.8,15.9-0.3,23.6c-5,0.3-8.5-3.6-12.7-5.7c-8.7-5.3-18.3-9.4-26.5-15.4
			c-1.9-6-3.5-12.7-9.1-16.3c-10.7-8.7-29,0.8-28.9,14.3c-0.7,7.7,4.3,15.3,11.2,18.3c5.4,2.8,11.9-0.6,17,3
			c13,7.7,26.7,14.4,39.3,22.5l0,1.5c-5.6,7.6-13,13.7-20.9,18.9c7.9-3.2,15.6-7.5,21.2-14c1.7-1.3,2.8-4.2,5.4-4
			c1.5,1.3,2.9,2.6,4.3,4C244,223.2,228.7,232.2,212.1,235.2z M168.5,115.8c-5.3-1-5.1-6.6-2.7-10.3h7.1
			C175.9,109.5,174.8,117.4,168.5,115.8z M183.5,156.7c3.4-3.2,6.5-8.3,11.9-7.4c5.1-0.3,9.2,3.5,12.1,7.3c0.9,3.4-0.2,6.8-0.8,10.1
			c-1.4-4.1-2.2-9.1-6.4-11.3C194.9,152.6,188.8,155.1,183.5,156.7z M198.3,167.9c0,1.8,0,3.5-0.1,5.3c-5.2,0.7-12-1.2-11.1-7.8
			C191.1,164.1,194.8,166,198.3,167.9z M314.8,242.8c-3.1-10.7-10.8-19.6-20.4-25c-20.7-12.1-41.6-23.9-61.8-36.8
			c22.7,9.2,43.3,22.7,64.9,34c11.5,5.9,19.5,17.2,22.9,29.5c5,18.5,10.6,36.8,15.5,55.3c1.4,6.1,4.3,12,4,18.4
			c-1.1,0-3.3,0.1-4.4,0.2C327.5,293.4,321.9,267.9,314.8,242.8z M258.9,359.3c-0.7-0.5-2.2-1.6-2.9-2.1c-1.7-5.6-1.8-11.6-3.4-17.2
			c-1.5,6.9-2.9,13.9-2.4,21c-2.2-7.8-1.5-15.9-1.3-23.8c-1.3,1.7-2.7,3.4-4,5.2c1.3,7-1.5,14.6-1.9,21.9
			c-3.6-4.6-1.9-11.5-2.2-16.9c0.9-3.5,0.2-11.2,5.8-9.5c0.2-0.6,0.5-1.6,0.7-2.2c2.4-0.9,4.6-2,6.8-3.2c0.8-0.5,2.3-1.5,3.1-2
			c1.1-0.3,3.4-0.9,4.6-1.1c-2.3,6.6-3.6,13.5-4.2,20.5C258.1,352.9,258.6,356,258.9,359.3z M264.6,349.6c-0.6,0.3-1.7,0.8-2.3,1
			c-0.9-7.7-0.4-15.4,2.8-22.5c1-0.4,3.1-1,4.1-1.3C265.6,333.9,264.5,341.7,264.6,349.6z M271.9,338.9c-0.3,5-0.1,10.1-0.6,15.1
			c-1.3-6.5-1.3-13.3-1.5-20c0.3-3.8,0.1-10,5.4-10.1C274.6,329,272.2,333.7,271.9,338.9z M283.5,322.4c-4.9,5.8-4.2,14-7.6,20.5
			c-1.1-6.4,1.2-12.7,1.7-19c3.4-3.4,9-3,13-5.6c-6.3,9.7-4.8,21.4-6.2,32.4C283.3,341.3,283,331.9,283.5,322.4z M309.2,446.6
			c-3.9-1.8-5.4-6.6-9.5-8c-3.5-0.1-6.8,0.9-10.1,1.9c2.7-2.8,5.7-6.3,10.1-5.5C305.9,434.3,309.8,441.1,309.2,446.6z M314,390.2
			c-1.1-2.2-3.3-4.1-3.5-6.6c-10.3-10.7-13.6-26.6-11.6-41c1.5-7.4,6.1-15.3,14-17c-3.3,3.5-7.4,6.6-8.8,11.5
			c-4.8,14.7-0.1,30.6,6.9,43.7c5,2.9,9.4,6.6,13.9,10.1C321.3,390.6,317.6,390.4,314,390.2z M369,423.2c-1-0.5-2.9-1.6-3.9-2.1
			c0.3-3.8-1.4-9.8,3.9-10.5C369,414.8,369,419,369,423.2z M486.6,414.3c-10.6-2.2-21.5-2.5-32-5.2c-15.2,0-30.4-0.2-45.6-0.9
			c11.7-2.1,23.7-1.2,35.5-1.7c9.7-0.6,19,2.7,28.7,2.4c27.6,4.8,55.4,11,80.7,23.4C531.9,424.7,509.5,418.3,486.6,414.3z
			 M622.9,459.3c-44.2-26.4-93-46.2-144-54.2c-27.5-4.4-55.6-4.7-83.1-0.5c-5.7,1-11.3,2.6-17.1,2.8c-4.3,0-8.5-1.1-12.8-0.6
			c-4.3,1.1-7.2,6.9-12,4.9c-2.2-1.5-3.6-4.3-2-6.8c4.2-8.7,6.5-18.4,6-28.1c25.8-9.4,52.3-18.3,79.9-19.8
			c16.9-0.9,33.7,4,47.5,13.7c20.8,15.4,38.5,35,61.2,48c9.2,5.3,18.5,10.6,28.4,14.3c11.6,3.5,23.2,7.2,35.1,9.3
			c8.3,0.8,14.6,6.8,22.4,9C631.5,455.4,625.6,456.4,622.9,459.3z M655.1,418.7c-10.3,0.6-20.4-1.5-30.6-1.7
			c-30.4-3.9-60.4-14.7-84.1-34.4c-21.5-15.5-38.6-37.5-63.8-47.4c-25.9-10.3-54.7-5.4-80.8,1.4c-24.4,7-48.3,15.6-72.2,24.4
			c-2.6,1-5.5,1.2-8.3,1.3c0.2-0.9,0.6-2.8,0.8-3.7c33.3-11.2,66.1-24.6,100.8-31c26.5-5.6,55.6-2.5,78.6,12.5
			c23.1,15.2,40.5,37.8,65,51.2c29.5,16.9,64,23.1,97.6,22.6C657.6,415.7,658.1,419.5,655.1,418.7z M657.1,405.5
			c-23.4-0.6-47-2.8-69.1-11.1c-21.8-7.5-41-21.3-57.6-37.1c-15.9-15-33.2-29.5-54.4-36c-14.5-4.3-29.9-6.2-45-4.5
			c-40.5,4.2-78.3,20.2-116.4,33.3c-4.5-2.5-1.7-9.4,0.9-12.3c34.5-12,68.9-25.8,105.4-30c14-0.6,28.1-0.8,42.2,0.2
			c19.7,3.2,38.6,11.5,54.4,23.7c19.5,13.9,35.5,32.5,56.4,44.5c15.5,9.3,33,14.8,50.9,17.3c11,0.2,21.9,2.4,32.9,1.8
			C658.7,398.7,659.6,402.5,657.1,405.5z M657.7,384.2c-0.3-2.8-0.6-5.5-0.6-8.3c-1.3-1.1-2.6-2.2-3.9-3.4
			c-0.3,3.8-0.7,7.7-0.9,11.5c-1.8,0.1-3.6,0.3-5.4,0.4c-0.1-6.9-0.3-13.8,0.8-20.7c3-5.6,9.1-9.6,15.6-9c16.6-2.6,33.5-2,50,0.4
			c0.1,6.8,0,13.6,0.1,20.5c-17.7,2.6-35.6-2.4-53.2,1.3C659.3,379.3,658.6,381.8,657.7,384.2z M874.5,425.5c-0.4,0.3-1.2,1-1.6,1.4
			c-0.9-4.1,0.6-10.8-4.4-12.4c-0.9,4.1-0.3,9.1-3.7,12.2c-0.5-4.2-0.6-8.5-1-12.7c-5.3,2-2.6,9-6.1,12.4c-0.9-4.6-1.5-9.3-2.1-14
			c-3.3,4.1-3,9.9-5.8,14.4c-0.8-5.3-0.6-10.6-1.7-15.9c-3.2,4.6-3,10.5-5.1,15.5c-1.2-5.1-1.9-10.3-2.5-15.5
			c-3.1,3.5-2.7,8.6-3.4,13c-0.7,0-2.1,0.1-2.8,0.1c-0.8-4.3,0.5-9.7-3.1-12.9c-0.8,4.5-1.5,9.1-2.8,13.5c-2.5-4.6-2.7-10-4-15
			c-1.1,4.3-2,8.7-2.6,13.1c-0.6-0.2-1.9-0.7-2.5-0.9c-1-4.1-2-8.2-3.3-12.2c-0.6,3.9-1,7.9-1.3,11.9c-4.3-0.5-3.9-5.7-5.5-8.7
			c-1.1,2.8-2.1,5.8-3.2,8.6c-2.5-2.4-3.6-5.8-5.1-8.8c-0.7,2.5-1.5,5-2.1,7.4c-0.5-0.3-1.5-0.9-1.9-1.3c-4.5,0.9-9,0.5-13-1.7
			c-0.7,0.6-2.2,1.8-2.9,2.4c-0.5-2.8-1-5.5-1.4-8.3c-1.1,2.5-2.1,5-3.1,7.6c-0.7,0-2,0.1-2.7,0.2c-0.3-2.1-0.8-4.3-1.2-6.4
			c-1.7,2.6-3.1,5.7-6,7.2c-0.9-3.3-1.6-6.6-2.3-10c-1,3.4-2,6.7-3.3,10c-4.2-1.6-2.2-7.1-4.8-10.1c-1.7,3.5,0.2,10.7-5.6,9.7
			c-0.3-2.8-0.7-5.6-1.1-8.4c-2.5,2.9-1.6,7.8-5.5,9.5c-1-3.2-2-6.3-3.1-9.5c-1.7,2.9-0.2,9.7-4.5,9.4c-1.1-3.2-1.8-6.5-3.1-9.7
			c-0.8,3.4-1.5,6.8-2,10.3c-0.7-0.1-2-0.4-2.7-0.5c-0.9-2.8-1.9-5.7-3.1-8.4c-1,3.5-1.7,7.1-2.5,10.7c-4-3-3.1-8.9-4.5-13.2
			c-0.9,4.9-1.8,9.7-3,14.6c-2.9-3.7-3.4-8.5-5-12.8c-2.1,4.2,0.2,11-4.4,13.2c-0.8-4-1.5-8-2.4-12c-2.6,4.1-2.8,8.9-3.2,13.6
			c-4.9-2.2-2.1-9.3-3.5-13.6c-3.4,4.5-3.8,10.3-5.7,15.5c-1.2-5.6-0.7-11.6-3.2-16.9c-2,5-0.9,11.7-5.3,15.5
			c-0.3-4.8-0.3-9.7-0.9-14.5c-4.1,3.8-2.9,10.1-5.8,14.6c-0.8-5.8-1.5-11.6-2.6-17.3c-1.2,3.9-1.3,8.4-4.2,11.5
			c-0.9-9.2,0-18.5-0.3-27.7c1.6,0.1,3.3,0.2,4.9,0.3c0.5-2,1.1-4,1.7-6c2.5,2.1,3.4,5.3,4.8,8.3c0.8-2.7,1.7-5.4,2.5-8.1
			c3.4,1.2,2.9,5.4,4.1,8.2c1.7-2.9,3-6.1,5.5-8.4c0.8,2.8,1.5,5.6,2.1,8.5c1.6-3.1,3.3-6.2,5.7-8.6c0.4,2.5,0.9,5.1,1.3,7.7
			c2.9-2.2,4.2-5.7,5.7-8.9c0.7,3.4,1.4,6.8,2.3,10.2c1.5-2.3,2.7-4.8,3.8-7.3c0.6-0.3,1.8-0.9,2.4-1.2c0.3,2.9,0.6,5.8,1.1,8.7
			c1.9-3,3.7-6.1,5.6-9c0.9,3.3,1.8,6.7,2.7,10.1c1.2-3.3,2.5-6.5,3.8-9.7c2.8,1.6,2.4,5.1,3,7.8c0.5-0.2,1.5-0.5,2.1-0.7
			c0.8-2.6,1.7-5.2,3.6-7.2c1.3,2.7,1.2,6.5,4,8.2c0.8-2.8,1.5-5.5,2.2-8.3c2.2,2.4,3.6,5.3,5,8.2c1.1-2.7,2.2-5.4,3.4-8.1
			c1.5,2.8,2.1,6.4,4.9,8.4c0.6-2.8,1.1-5.7,1.7-8.5c2.3,2.6,3.9,5.7,5.6,8.7c0.8-3.3,1.7-6.7,2.5-10c1.3,2.9,2.6,5.7,4,8.5
			c1.6-2.2,2.7-4.6,3.2-7.3c2.3,2.5,3.8,5.6,5.4,8.7c0.8-2.9,1.5-5.8,2.4-8.7c1.6,1.8,2.6,4,3.6,6.3c0.6,0,1.9,0.1,2.6,0.2
			c0.3-2,0.7-4.1,1.1-6.1c3.5,1.1,3.6,5.3,5.2,8.1c1.3-2.7,1.2-6.8,4.4-8.2c0.6,2.1,1.1,4.2,1.7,6.3c0.6-0.1,1.9-0.3,2.5-0.3
			c1-2.5,2-5,3.2-7.5c0.8,3,1.7,6,3,8.8c1.6-2.5,3.1-5.1,4.8-7.5c0.7,2.7,1.4,5.4,2.1,8.2c1.8-2.7,3.5-5.5,5.5-8.2
			c0.8,2.9,1.6,5.8,2.5,8.7c1.9-2.7,2.2-7,5.6-8.2c0.5,2.8,1,5.6,1.6,8.4c2.1-2.8,3.5-6,5.4-8.8c0.8,2.8,1.6,5.7,2.4,8.5
			c2.6-1.9,2.7-5.5,3.9-8.3c2.4,2.3,3,5.6,4.2,8.5c1.2-2.3,2.1-4.7,2.9-7.1c0.5-0.3,1.4-0.9,1.9-1.2c1,3.2,2,6.3,2.9,9.5
			c1.2-3.3,2.3-6.5,3.3-9.8c1.9,2.8,3.7,5.7,5.4,8.6c0.5-2.8,1-5.8,1.7-8.6c2.5,2.5,4.2,5.6,6.2,8.5c0.7-3,1.1-6,2.6-8.7
			C875,400.2,874.6,412.9,874.5,425.5z M867,376.4c-14-0.3-28,0.6-42-0.4c-0.4-3.3-0.7-6.5-0.9-9.8c-0.7,1-1.4,2.1-2.2,3.1
			c-0.2,2.1-0.5,4.2-0.9,6.2c-1.2,0-3.5-0.2-4.6-0.2c-0.8-4.9-1-10.4,1.9-14.7c2.5-2.6,5.8-4.2,9-5.6c11.5-1.1,23-2.7,34.7-2
			c6.6-0.1,13,1.8,19.7,1.8c2,6.5,0.6,13.3,1.2,19.9C877.9,377.4,872.3,376.1,867,376.4z M890.4,355.8c0.6,0.5,1.9,1.7,2.5,2.2
			c0.6,8.6,0.1,17.2,0.2,25.8c-2.9-0.1-5.8-0.2-8.7-0.4c1.3-1.5,2.6-3.1,4-4.6C889.1,371.2,886.2,362.5,890.4,355.8z M886.6,394.1
			c13.6-0.2,27.5,0.7,40.9-2.7c15.6-2.7,30.5-8.8,43.8-17.2c28-17.6,48.7-45.7,79.9-58.3c22.3-10.6,47.6-9.1,71.7-8.1
			c36.3,4.8,70.5,18.4,104.8,30.4c1.3,3.8,2.1,7.7,2,11.7c-1-0.2-2.9-0.5-3.9-0.7c-34.4-11.5-68.3-25.6-104.3-31.2
			c-21-3.6-42.9-1.9-62.8,5.8c-19.7,7.8-35.5,22.4-50.6,36.7c-11.6,10.1-23.8,19.9-37.7,26.7c-25.8,13-55,17.8-83.7,18
			C882.9,402.7,885.3,397.6,886.6,394.1z M947.2,442.5c-9.7,4.4-18.6,10.2-28.1,15.1c-3.8-1-6.7-4-10-5.9c6.7-3,12.6-8.1,20.1-9
			c10.3-1.7,20.5-4.2,30.6-7.3C955.8,438.2,951.5,440.6,947.2,442.5z M1090.8,409.2c-8.6-0.5-16.7,3.3-25.2,3.2
			c-29.1,4.4-57.9,11.6-85.3,22.6c13.6-8.3,29.3-12.2,44.2-17.3c16.9-4,33.7-8.5,51.2-9.4c12.8-2.5,25.9-1.6,38.8-1.4
			c5.1,0.1,10.3,0.1,15.3,1.4C1116.8,409,1103.8,409.4,1090.8,409.2z M1169.3,425c2.1-4,2-8.6,1.8-13c-1.1-0.3-3.2-0.8-4.2-1.1
			c1.8,0,3.6,0,5.4-0.1c0.4,3.3,0.6,6.7,0.7,10.1C1171.6,422.3,1170.4,423.7,1169.3,425z M1181.8,412.6c-3.8-3.3-8-7.2-13.5-5.8
			c-11.4,2.4-22.3-2.8-33.6-3.2c-11.7-2.4-23.6-1.5-35.4-1.7c-15.8-0.4-31.4,2.4-47.1,4.2c-5,1.3-10.1,2.5-15.2,3.4
			c-12.5,2.3-24.4,7.1-36.7,10.1c-4.2,3.9-9.7,5.3-15.1,6.6c0.1-0.9,0.3-2.7,0.4-3.7c3.3-1.3,6.4-3.7,10.1-3.7
			c12.4-8.1,24.5-16.8,35.4-26.8c5.2-4.4,10.1-9.1,15.7-13.1c13.9-13.4,32.9-22.1,52.4-21.9c29.4,0,57.3,10.5,85,19.4
			c-0.6,11.1,2.4,22,7.3,31.8C1188.3,409.8,1185.1,411.2,1181.8,412.6z M1116.2,330.6c-22.2-3.4-46.2-0.5-65.3,12
			c-23.2,15.1-41.1,37.1-65,51.2c-29.7,18.6-65.5,25.3-100.2,24.6c0.1-1.2,0.2-3.5,0.3-4.6c42.9,1,87.8-10.9,120.3-40
			c16.5-13.9,31.4-30.2,51.1-39.6c13.5-6.6,28.7-8.9,43.6-9.4c43.7,2,84.1,20.7,125.3,33.7c0.1,0.9,0.3,2.7,0.3,3.7
			c-1.1-0.1-3.2-0.3-4.2-0.4C1187.1,351.1,1153.1,335,1116.2,330.6z M1217.3,390.8c10.9-5.9,17.1-17.7,19.5-29.5
			c3.3-12.3,1.5-27.4-9.3-35.6c7.7,1.1,11.8,9,13.4,15.8c2.7,14.3-0.5,30.1-10.2,41.2C1227.4,387,1222,388.5,1217.3,390.8z
			 M1240.9,439.1c-3.7,1.5-4.8,5.6-6.6,8.7c-1.6-3.1-2-7.4,1.2-9.7c4.6-5.7,13.7-3.5,16.8,2.7
			C1248.7,439.8,1244.7,437.6,1240.9,439.1z M1257.8,347.6c-1.7-6.9-0.2-14.3-2.8-21c-1.1-3.1-2.3-6.1-3.5-9.1
			c2.4,1.6,5.7,2.9,6.6,6C1259.6,331.5,1258.7,339.6,1257.8,347.6z M1299.7,364.1c-0.9-8.7-1.7-17.5-4.6-25.8
			c-0.7-0.5-2.1-1.3-2.8-1.8c1.5,8.4-0.8,16.7-0.7,25.2c-0.2,0-0.7,0-1,0c0.1-7.2,0.2-14.5-1.2-21.6c-2.2,5.8-1.2,12.5-4.9,17.7
			c0-2.2,0.1-4.5,0.2-6.7c-0.7-4.8-1.4-9.7-2.4-14.4c-2.6,6.3,0.4,14.8-4.8,19.8c0.1-0.8,0.2-2.6,0.3-3.4
			c-1.2-5.6-0.6-11.5-1.7-17.1c-3.2,6.2-3.6,13.1-4.3,19.9c-0.7-0.6-2-1.8-2.7-2.3c-0.2-4.5-0.1-9.1,0.8-13.5
			c-0.6-2.7-1-5.5-1.4-8.2c-2,5.8,0,13.2-4.6,17.9c-1.2-4.8-1.3-9.8-0.8-14.6c-1.1-4.8-2.7-9.5-4.2-14.1c1.7,0.9,3.5,1.7,5.2,2.5
			c0.7,0.2,2.1,0.7,2.8,0.9c3.4,1.7,6.9,3.3,10.5,4.5c3.4,0.5,8.2,0.1,10.2,3.5c3.4,1.9,7.5,3,10,6.3
			C1302,346.6,1300.2,355.7,1299.7,364.1z M1315.7,396.3c0.8-10.9-2.2-21.4-1.9-32.2c4.6,2,6.6,7.3,6.9,12
			C1321,383.1,1319.9,390.5,1315.7,396.3z M1341.3,407.6c-3.7-6.2-0.4-13.7-0.9-20.5c-0.7-4.1-1.3-8.2-1.6-12.3
			c0.9,0.1,2.6,0.4,3.5,0.5c0.9,1.8,1.9,3.6,2.7,5.4C1348.3,389.4,1346.6,400,1341.3,407.6z M1366.1,416.7
			c-0.1-10.8-0.1-21.6-2.1-32.2c3.8,1,6.6,4.4,6.9,8.3C1371.3,400.8,1371.6,410.1,1366.1,416.7z M1393.9,425.2
			c-0.6,0.1-1.8,0.3-2.4,0.4c-0.4-7.8,0.9-15.8-1.3-23.4c-1-3.1-0.6-6.4-0.4-9.6C1400.4,400.3,1396.5,414.5,1393.9,425.2z
			 M1419.2,433.6c-3.4-1.8-2.1-5.9-2.4-9c0.4-7-2.2-13.7-1.9-20.6c1.9,1.2,4.8,1.7,5.4,4.3C1423.7,416.4,1421.8,425.5,1419.2,433.6z
			 M1446.4,440.3c-1.2,2.5-2.5,5-3.9,7.5c-2.4-7.7-0.9-15.7-1-23.6c-0.6-3.2-1.1-6.5-1.2-9.8c2.3,0.6,5,1.3,5.6,4.1
			C1448.4,425.5,1446.7,433.1,1446.4,440.3z M1464.9,460.4c0.5-11.9,2.9-23.7,1.7-35.7c-1.9-7.8-8.9-11.7-15.4-15.3
			c3.5-0.3,7.1-1.1,10.6-0.2c5.9,3.1,8.7,9.5,10.1,15.6c1,8.7,0.1,17.6-2.8,25.9C1470.1,454.6,1466.8,457.6,1464.9,460.4z"/>
	</g>
	<path id="XMLID_741_" class="st0" d="M769,531.2c5,0.1,10.1,0.2,15.1,0.3c0,7-0.1,14.1-3.8,20.3c-4,0.1-7.9,0.2-11.9-0.2
		C769,544.8,768.3,538,769,531.2z"/>
	<path id="XMLID_740_" class="st0" d="M859.7,557.1c3.4,4.2,4,9.9,6,14.8c1.5,6.4,3.7,12.8,3.7,19.5c0.1,2.6-2.2,6.2-5.1,4.3
		c-5.3-3.4-4.7-10.5-4.7-16C860,572.1,859,564.6,859.7,557.1z"/>
	<path id="XMLID_311_" class="st0" d="M711,607.1c0.2-8.2,0-16.5-0.2-24.7c-5.4,3.1-10.3,7-14.9,11.2c0,4.5,0,9,0,13.5L711,607.1
		L711,607.1z"/>
</g>
<path id="XMLID_312_" class="st0" d="M641.2,607.1c0.4-4.7,1.3-9.5,1.5-14.1c1.1,2.2,2.2,4.3,3.3,6.5c-0.8-5.2-1.9-10.2-2.7-15.3
	c-1.2,7.6-2.4,15.2-2.4,22.9L641.2,607.1L641.2,607.1z"/>
<path id="XMLID_613_" class="st0" d="M1259.3,320.9c1.7,0.8,3.5,1.7,5.2,2.5c0.2,6.4,0.9,12.7,1,19c-0.8-2.5-1.5-4.9-2.1-7.4
	C1262.4,330.2,1260.7,325.6,1259.3,320.9z"/>
<g id="XMLID_555_">
	<path id="XMLID_558_" class="st0" d="M1264.5,323.4c0.7,0.2,2.1,0.7,2.8,0.9c0.6,2.5,1.1,5,1.5,7.5c-1.9,5.8,0,13.2-4.5,17.9
		c-1.1-4.8-1.3-9.8-0.8-14.6c0.6,2.5,1.3,5,2.1,7.4C1265.4,336.1,1264.7,329.8,1264.5,323.4z"/>
</g>
<g id="XMLID_551_">
	<path id="XMLID_552_" class="st0" d="M1272.4,327.4c1.7,2.6,3.3,5.5,4,8.6c-3.2,6.2-3.6,13.1-4.3,19.9c-0.7-0.6-2-1.8-2.7-2.3
		c-0.2-4.5-0.2-9.1,0.8-13.5c0.6,1.4,1.1,2.8,1.8,4.2C1272.2,338.6,1272,333,1272.4,327.4z"/>
</g>
<g id="XMLID_507_">
	<path id="XMLID_508_" class="st0" d="M821.9,360.7c1,0.1,3,0.3,4,0.4c0.3,4.4,0.6,8.8,0.9,13.2c18.7,1,37.4-0.3,56.1,0.6
		c-4.9,2.5-10.6,1.2-15.9,1.5c-14-0.3-28,0.6-42-0.4c-0.4-3.3-0.7-6.5-0.9-9.8c-0.7,1-1.5,2.1-2.2,3.2
		C821.9,366.5,821.9,363.6,821.9,360.7z"/>
</g>
<g id="XMLID_505_">
	<path id="XMLID_506_" class="st0" d="M653.3,361.8c3.8,3.8,3.9,9.1,3.7,14.1c-1.3-1.1-2.6-2.2-3.9-3.3c-0.3,3.8-0.7,7.6-0.9,11.5
		c-1.8,0.2-3.6,0.3-5.4,0.4c-0.1-6.9-0.4-13.8,0.8-20.7c0,6,0.1,12.1,0.1,18.1c1.5,1.2,4.7,0.4,3.8-2.1
		C651.8,373.8,652.3,367.8,653.3,361.8z"/>
</g>
<g id="XMLID_484_">
	<path id="XMLID_487_" class="st0" d="M1451.1,409.5c3.5-0.3,7.1-1.1,10.6-0.2c5.9,3.1,8.7,9.5,10.1,15.6c1,8.7,0.1,17.6-2.8,25.9
		c-2.6-8.5-1-17.4-2.5-26C1464.6,416.9,1457.6,413.1,1451.1,409.5z"/>
</g>
<g id="XMLID_469_">
	<path id="XMLID_472_" class="st0" d="M784.1,417.2c0.9-2,1.8-4,2.7-6c1.1,2.3,2.2,4.5,3.3,6.8c1.3-2.4,2.5-4.8,3.8-7.2
		c1,2.7,2,5.4,3.2,8C792.7,419.7,788.1,419.3,784.1,417.2z"/>
</g>
<g id="XMLID_467_">
	<path id="XMLID_468_" class="st0" d="M985.7,422.5c3.3-1.3,6.4-3.7,10.1-3.7c1.1,0.2,3.4,0.6,4.6,0.8c-4.1,3.8-9.7,5.3-15.1,6.6
		C985.4,425.2,985.6,423.4,985.7,422.5z"/>
</g>
<path id="XMLID_456_" class="st0" d="M713.6,452.2c40.3-8.7,82.6-8.7,122.5,1.7c18.4,4.9,36.5,12.2,51.5,24.2
	c6.2,5.2,9.8,12.5,13.7,19.4c-6,4.3-15.2,9.1-13.1,18c-16-21.4-38.5-37.3-63.2-47.2c-24.3-9.3-50.9-11.8-76.5-8
	c-35,5.1-67.4,24-90.3,50.8c-1.1-2.4-2.2-4.7-3.3-7.1c0.3-0.6,1-1.9,1.4-2.5c2.2,0.6,4.5,1.2,6.7,1.8c-0.3-1.8-0.6-3.6-0.8-5.4
	c-5.1-0.7-10.1-1.8-15.1-3c-0.7,1.6-1.5,3.1-2.2,4.7c-1.3-0.1-2.5-0.2-3.8-0.2c4.2-8,8.4-16.5,15.8-22.1
	C673.3,464.2,693.5,457.3,713.6,452.2z"/>
<g id="XMLID_450_">
	<path id="XMLID_332_" class="st0" d="M640.8,607.1c0.1-7.7,1.3-15.3,2.4-22.9c0.1-5.4,1-10.8,2.9-15.9c1.3-3.6,2.9-7,4.7-10.4
		c0.4,6.2-1.2,12.5,0.4,18.7c0.9,2.5,1.2,5.3,0.3,7.9c-1.3,7.5-1.9,15.1-2,22.7h6.3c0-11,0.1-22.1,2.7-32.9
		c1.8-7.8,3.2-16.1,8.3-22.6c-3.1,13.7-7.2,27.4-7.4,41.6c-0.1,4.7-0.2,9.3-0.2,14h10.8c-2.2-1.6-4.2-3.5-5.2-6.2
		c-3.2-16.3,1.8-32.9,9.9-47c2.6-4.3,4.6-9,5.3-14.1c-0.5-4.3,0.6-8.5,1.6-12.6c1,3.2,1.7,6.4,2.4,9.6c6.5-7,13.8-13.7,16.7-23.2
		c1.6,11.8-2.7,23.4-1.8,35.3c2.1-1.6,4.2-3.2,6.4-4.6c7.6-9.8,10.1-22.1,10-34.3c-2.1-2.8,0.8-5.5,2.4-7.6c1.2,3.3,2.5,7.3-1.2,9.5
		c0.9,7.7,0.1,15.5,0.3,23.2c3.6-1.8,7.7-3.3,10.7-6.1c2.4-2.9,3.7-6.7,4.3-10.4c0.6-7.8,1.8-15.5,2-23.3c2,10.3,1.2,20.9,1.1,31.4
		c3.8-1.4,7.6-2.8,11.5-4c0.8-1.8,1.7-3.6,2.5-5.4c1.7-8.3,0.3-17.2,3.3-25.2c2.3,9.7,0.6,19.6,1.3,29.4c3.4-0.5,7-0.5,10.3-1.7
		c1.6-2.2,2.2-4.9,3-7.4c-0.3-3-0.5-6.1-0.7-9.1c0.3-3.5,0.7-7,1.1-10.5c0.8,0,2.4,0,3.3,0c0.3,2.7,0.6,5.4,0.8,8.1
		c-0.3,6.9-0.4,13.9,1.1,20.7c3.7-1.2,9.1-0.2,11.4-4c-0.1-7.5,0-15.1,0.4-22.6c0.8-0.2,2.3-0.7,3.1-0.9c1.7,9.1,3.3,18.5,1.2,27.6
		c3.3,0.8,6.5,1.5,9.9,1.8c1.2-2,2.4-4,3.6-6c0.7-7.4-1.1-15.3,2-22.2c2.9,10.6,0.9,21.8,3.6,32.4c3.2,1.2,6.5,2.1,10,2.6
		c5.2-8,1.5-18,4.6-26.5c1.1,10.1,0.9,20.2,1.1,30.3c2.4,4.7,8.1,7.1,12.2,10.4c0.5-0.6,1.4-1.7,1.8-2.3c1.5-9.8,1.1-19.8-0.6-29.5
		c3.9,8.5,11.3,14.5,17.4,21.3c0.6-3.4,1-6.8,1.6-10.2c0.4,6.3,1.7,12.5,3.4,18.5c6.5,9.7,10.6,20.6,15.3,31.2
		c2.2-8.4-3.6-16.3-0.9-24.7c3.6,12.1,4.8,24.9,5,37.5c0.8,6.9,1.7,13.8,1.4,20.8h15.6c0.1-8.1-1.8-16.2-2.8-24.3
		c-2.7-7.1-5.1-14.2-6.6-21.7c2.5,2.2,4.9,4.3,7.4,6.5c-2.6-7.5-6.5-14.8-6.6-22.9c4,5.3,6.9,11.3,8.6,17.8
		c5.6,14.2,7.5,29.4,7,44.6h6.3c0-25.7-7-51.4-20.9-73.1c-17.6-28.5-46.4-49.7-78.5-59.1c-17.1-5.1-35.3-4.8-52.9-3.9
		c-48.7,4.7-92.5,38.7-110.6,83.9c-6.9,16.6-10.1,34.4-10,52.2L640.8,607.1L640.8,607.1z"/>
</g>
<path id="XMLID_444_" class="st0" d="M841.5,524.9c3.8,4.4,7.2,9.1,10.3,14c6.2,7.8,4.1,18,4.5,27.2c-0.2,6,1.7,13.6-4.3,17.5
	c-3.7-2.8-7.4-5.8-10.7-9C842.1,558,840.7,541.5,841.5,524.9z"/>
<path id="XMLID_443_" class="st0" d="M685.8,542c3-4.7,6.1-9.4,9.8-13.6c0.2,12.5-2.4,24.7-2.4,37.2c-0.2,4.3,0,8.7-0.8,13
	c-3.1,7.2-8.9,12.7-14.6,17.9c-0.3-8.6,0.5-17.2-0.2-25.8l-2.2,1.3c-1.7,7.1-0.2,14.8-1.3,22c-0.4,0-1.2,0-1.6,0
	c-0.3-5.9-0.8-11.9-0.1-17.8c1.5-4.9,7-8.1,6.9-13.6C679.2,555.2,681.5,548.1,685.8,542z"/>
<path id="XMLID_124_" class="st0" d="M755,607.1c-0.3-9.4-0.1-18.8,0-28.2c3.3-1.5,6.8-2.8,10.2-4.1c0.2-3.3,0.3-6.6,0.5-9.9
	c-4.9,0.1-9.8,0.2-14.6,0.4c-0.8,13.9-1,27.9-1,41.8H755z"/>
<path id="XMLID_313_" class="st0" d="M773.3,607.1c-0.2-10.7,0.3-21.3-0.2-32c2.2,0.2,4.3,0.3,6.5,0.5c3.5-1.8,3.7-5.6,3.9-9.1
	c-4.8-0.4-9.5-0.8-14.2-1.1c-0.7,13.9-0.5,27.8-0.3,41.7L773.3,607.1L773.3,607.1z"/>
<path id="XMLID_314_" class="st0" d="M806.5,607.1h14.1c0.1-10.5-0.2-21.1,0.1-31.6c-4.8-2.2-9.8-4.2-15-5.7
	c0,11.1,0.7,22.3,0.9,33.4C806.5,604.4,806.5,605.8,806.5,607.1z"/>
<g id="XMLID_384_">
	<g id="XMLID_407_">
		<path id="XMLID_410_" class="st0" d="M556.7,461.7c-12.8-0.9-26.4-1.8-38.6,2.9c-2.3,0.7-4.1,2.2-5.1,4.4c5.6,0.1,11-1.4,16.5-1.9
			c13.2-1.9,26.5,0.1,39.8-0.8C566.8,462.2,560.8,463,556.7,461.7z M526.6,464.3c11.2-3,23.8-4.4,34.7,0.7
			C549.7,465.9,537.9,466.7,526.6,464.3z"/>
	</g>
	<path id="XMLID_391_" class="st0" d="M141.6,542.2c3.6-5.2,7.3-10.4,10.4-16c1,3.2,1.6,6.9-0.4,9.9
		C149.7,539.9,145.1,540.6,141.6,542.2z"/>
</g>
<g id="XMLID_325_">
	<g id="XMLID_330_">
		<path id="XMLID_451_" class="st0" d="M1057.3,544.7c-0.5-16,0.1-32-2.7-47.9c-0.1-5.3-5.3-7.8-8.8-10.8c-2.9,1.7-5.8,3.3-8.7,4.9
			c-5.1,0.8-10.4,0-15.5-0.2c4.4,1.8,8.9,3.7,13.1,6.1c-3.1,0.6-6.2,1-9.3,1.6c4,1.8,8,3.6,11.9,5.6c-4.7,1.4-9.4,2.9-14.3,3.8
			c-0.4-1.4-0.8-2.8-1.2-4.2c-0.3,4.5-4.8,2.8-7.8,3c-18.8,1.1-37.5-0.3-56.2,0.5c-8.5,0.5-17,1.4-25.6,0.9
			c4.3-2.6,8.6-5.1,13.1-7.3c-3.2-0.4-6.4-1-9.6-1.7c5.6-1.7,11.4-2.4,17.1-3.5c-3.5-0.6-7-1.2-10.4-1.8c-2.4-0.7-4.7-1.6-7-2.5
			c4.1-1,8.3-1.8,12.4-2.5c-3.8-1.4-7.5-2.8-11-4.6c3.1-0.9,6.3-1.7,9.5-2.2c-6.4-1-11.4-5.5-17.4-7.3c-4.2,1.1-6.8,5.5-9.8,8.3
			c2.3,0.1,4.6,0.1,6.9,0.2c-1.3,1-2.7,2.2-4.2,3.2c-0.3,0.2-0.6,0.3-0.8,0.5c-0.5,0.3-1.1,0.5-1.7,0.7c-0.8,0.2-1.7,0.3-2.6,0.2
			c-0.1,0-0.1,0-0.2,0c-0.1,0-0.1,0-0.2,0c-0.2,0-0.3,0-0.5,0c-0.2,0-0.3-0.1-0.5-0.2c-1.5-0.6-2.5-2.3-3.5-3.6
			c-9.5-7.9-20.7-13.8-32.5-17.4c12.7,8.8,26.2,17.3,35.1,30.3c-4.2-2.4-8.3-4.9-12.6-7c4.8,7,10.8,13.1,15.1,20.4
			c-2.1-0.3-4.2-0.5-6.3-0.8c3.8,7.2,10.8,14.8,7.4,23.4c-5.5-11.8-10.7-23.7-16.7-35.2c-6,4.4-15.2,9.1-13.1,18
			c20.6,25.8,31.4,58.7,31.5,91.5h15.8v-46c0-16.5,10.5-29.9,23.6-29.9h40c13,0,23.6,13.4,23.6,29.9v46h18.8c0-14.3,0.1-28.6,0-42.9
			C1047.7,558.7,1055.6,553.5,1057.3,544.7z"/>
		<path id="XMLID_454_" class="st0" d="M663,503.2c-0.3-1.8-0.6-3.6-0.8-5.4c-5.1-0.7-10.1-1.8-15.2-3c-0.7,1.5-1.4,3.1-2.1,4.7
			c-1.3-0.1-2.5-0.2-3.8-0.2c-6.2,11.6-11.1,23.8-17.4,35.3c-2.1-9.4,2.7-17.9,7.7-25.3c-2.1,0.2-4.2,0.5-6.3,0.7
			c4.1-7,9.5-13.2,15.3-18.8c-2.1,0.1-6.2,0.2-8.3,0.3c8-11.1,20.5-17.4,31.2-25.5c-7.3,2.8-14.6,5.7-21.3,9.8
			c-5,2.8-9.5,6.7-14.7,9.2c1-1.3,1.9-2.5,2.9-3.8c-1.2-3.7-1.8-7.7-3.8-11.1c-4.2-2-9.1-2.6-13.8-2.1c-4.8,0.3-5.8,5.9-7.8,9.3
			c-0.2,0.3-0.6,1.1-0.8,1.4c-3.3,0.7-6.6,1.1-9.9,1.6c3.3,1.5,6.8,2.8,9.2,5.6c-3.1,0.5-6.2,0.9-9.2,1.3c-1.7,0.6-3.4,1.2-5,1.9
			c4.7,0.6,9.3,0.8,14,1.3c-3,4.5-9.2,3.7-13.8,5.1c5.7,1.2,11.6,1.7,17.1,3.8c-3.6,0.6-7.3,1-11,1.2c3.1,2.4,6.3,4.7,9.5,7.1
			c-22.6-0.9-45.2-0.9-67.8-0.6c-11,0.2-21.8,2.9-32.8,4.1c2.3-2.6,5-5.1,8.8-5.2c1.1-0.2,3.2-0.6,4.2-0.8
			c-4.4-0.1-8.8-0.2-13.2-0.5c2.2-1.5,4.5-2.8,6.9-4c1.7-0.7,3.5-1.4,5.3-2c-3.3-0.8-6.6-1.5-9.9-2.5c-5.5-2.8-7.1-9-9.2-14.3
			c-1.9,2.8-3.7,5.6-5.6,8.4c-2-1.1-4-2.2-5.9-3.3c-3.1,8.7-1.6,18.1-1.9,27.2c0.3,10.1-1,20.3,0.8,30.3c1.8,9,9.8,14.4,16.3,19.9
			c-0.1,14.3-0.1,28.6-0.1,42.9h19.1v-55.2c0-16.2,10.5-29.2,23.6-29.2h40.4c13,0,23.6,13.1,23.6,29.2v55.2h16.3
			c0-34.7,12.3-69.4,34.7-96c-1.1-2.4-2.2-4.7-3.3-7.1c0.3-0.6,1-1.9,1.4-2.5L663,503.2z"/>
	</g>
</g>
<g id="XMLID_316_">
	<path id="XMLID_317_" class="st0" d="M938.4,477.1c13.2-1.5,26.4,0.8,39.7,0.1c13.1,0.4,26.3-1.3,39.3,1.3
		c-17.6-0.5-35.2-0.4-52.8-0.4c-7.8-0.3-14.7,3.8-21.7,6.6c3.8,1.2,7.5,2.4,11.2,3.9c-4,1-8,1.8-12.1,2.3c0.2,0.7,0.4,2,0.6,2.6
		c-2.4-0.7-4.7-1.6-7-2.5c4.1-1,8.3-1.8,12.5-2.5c-3.8-1.4-7.5-2.8-11-4.6c3.1-0.9,6.3-1.7,9.5-2.2c0.8-0.1,2.4-0.3,3.1-0.4
		C945.8,480,942.1,478.7,938.4,477.1z"/>
</g>
<g id="XMLID_306_">
	<path id="XMLID_308_" class="st0" d="M766.9,492.8c0.8,0,2.4,0,3.3,0c0.3,2.7,0.6,5.4,0.8,8.1c-1.7,0.8-3.5,1.6-5.2,2.5
		C766.2,499.8,766.5,496.3,766.9,492.8z"/>
</g>
<g id="XMLID_304_">
	<path id="XMLID_305_" class="st0" d="M801.7,517.5c0.7-7.4-1.1-15.3,2-22.2c2.9,10.6,0.9,21.8,3.6,32.4c-0.6-0.3-1.9-0.8-2.5-1
		c-0.4-4.8-0.4-9.6-0.4-14.4C803.5,514.1,802.6,515.8,801.7,517.5z"/>
</g>
<g id="XMLID_296_">
	<path id="XMLID_297_" class="st0" d="M945.4,500.7c1,0,3.1,0,4.1,0c-1.1,1.4-1.9,3-2.2,4.8c0.9,0.1,2.7,0.2,3.6,0.3
		c21,1,42.1-0.8,63.1,0.9c-18.7,1.1-37.5-0.3-56.2,0.5c-8.5,0.6-17,1.5-25.6,0.9C936.5,505.4,940.9,502.9,945.4,500.7z"/>
</g>
<g id="XMLID_294_">
	<path id="XMLID_295_" class="st0" d="M715,510c-2.1-2.8,0.8-5.5,2.4-7.6c1.2,3.3,2.5,7.3-1.2,9.5C715.8,511.4,715.3,510.5,715,510z
		"/>
</g>
<g id="XMLID_288_">
	<path id="XMLID_290_" class="st0" d="M837,542.3c1.5-9.8,1.1-19.8-0.6-29.5c3.9,8.5,11.3,14.5,17.4,21.3c0.6-3.4,1-6.8,1.6-10.2
		c0.4,6.3,1.7,12.5,3.4,18.5c-1.9-2.4-4-4.5-6.2-6.7c-0.2,0.8-0.6,2.4-0.8,3.2c-3.2-4.9-6.5-9.6-10.3-14
		c-0.9,16.5,0.6,33.1-0.2,49.6c-2.1-12.1-0.8-24.5-1-36.8C839.3,539.3,838.2,540.8,837,542.3z"/>
</g>
<g id="XMLID_262_">
	<path id="XMLID_279_" class="st0" d="M751.9,531.6c4.9-0.2,9.8-0.2,14.7-0.1c0,6.9,0.2,14.8-4.7,20.2c-3.5,0.5-7.2,0.5-10.7,0.6
		C751.2,545.4,751.3,538.5,751.9,531.6z"/>
	<path id="XMLID_272_" class="st0" d="M787.2,533.9c3.2-4.7,9.4,0.5,13.9,0.7c2.9,5.7,0.9,13.6-1.9,19.4c-4.3,0.1-8.5-0.5-12.4-2.3
		C787.3,545.8,787.1,539.8,787.2,533.9z"/>
	<path id="XMLID_271_" class="st0" d="M733.5,537.6c3-4.5,10-3.5,14.8-4.4c-0.3,6.1,0.6,12.7-2,18.5c-2.9,4.4-8.8,4.5-13.4,5.9
		C733.1,551,732.8,544.3,733.5,537.6z"/>
	<path id="XMLID_270_" class="st0" d="M805.4,536c5,1.2,10.8,2,14.6,5.7c0.3,4,0.2,8,0.1,11.9c-1,2.2-2.2,4.3-3.4,6.5
		c-3.8-1.2-7.6-2.3-11.4-3.3C805.4,549.8,805.4,542.9,805.4,536z"/>
	<path id="XMLID_269_" class="st0" d="M722.3,539.2c2.5-0.5,5.1-1,7.7-1.3c-0.3,6.3,0.7,13-2.4,18.8c-2.3,5.2-8.1,7.1-12.8,9.4
		c-0.1-1.1-0.2-3.4-0.2-4.5C716.3,553.7,714.5,543.8,722.3,539.2z"/>
	<path id="XMLID_268_" class="st0" d="M698.5,554.7c2.2-3.7,6.5-5.6,9.7-8.3c1.5,1,2.7,2.3,3.6,3.9c0.1,6.3-1.1,12.6-3.9,18.3
		c-2.8,4.3-7.4,6.9-11.4,9.9C696.8,570.6,697.1,562.6,698.5,554.7z"/>
	<path id="XMLID_150_" class="st0" d="M728.7,607.1c0.9-11.5,0.6-23.1,0.5-34.6c-5.1,1.8-9.8,4.2-14.7,6.5c0,9.4-0.7,18.7-0.9,28.1
		L728.7,607.1L728.7,607.1z"/>
	<path id="XMLID_151_" class="st0" d="M857.2,607.1c0-0.7-0.1-1.3-0.2-2c-1.6-3.4-4.2-6.1-6.7-8.8c-2.5-1.9-5.1-3.7-7.8-5.4
		c-0.1,5.4,0,10.8,0,16.3L857.2,607.1L857.2,607.1z"/>
	<path id="XMLID_152_" class="st0" d="M692.5,607.1c0-3.2-0.1-6.3-0.1-9.5c-4.8,2.8-8.9,6.4-13.5,9.5H692.5z"/>
</g>
<g id="XMLID_243_">
	<path id="XMLID_245_" class="st0" d="M823.6,563.1c0.1-6.6-0.7-13.4,1-19.8c4.7,2.3,9.1,5.1,13.4,8.2c0.3,5.9,0.8,11.9-0.5,17.7
		c-2.9,3.4-6.5-1.6-9.3-2.9C826.7,565.2,825.1,564.2,823.6,563.1z"/>
</g>
<g id="XMLID_157_">
	<g id="XMLID_159_">
		<path id="XMLID_162_" class="st0" d="M894.9,562.5c-1.6-6.4-4.5-12.5-8.5-17.8c0.1,8.1,4,15.4,6.6,23c-2.5-2.2-4.9-4.3-7.3-6.5
			c1.5,7.4,4,14.6,6.6,21.7C897.3,577.1,894.8,569.3,894.9,562.5z M892,577c-2.4-0.2-2.8-1.3-1.3-3.3C893.1,573.9,893.5,575,892,577
			z"/>
	</g>
</g>
<g id="XMLID_144_">
	<path id="XMLID_259_" class="st0" d="M768.9,607.1c-0.1-13.9-0.3-27.8,0.3-41.7c4.8,0.3,9.5,0.7,14.2,1.1c-0.2,3.5-0.4,7.2-3.9,9.1
		c1.5,0.2,3,0.3,4.5,0.5c0.1-4,0-8-0.4-12c-5.1-0.2-10.1-0.4-15.2-0.5c0,14.5,0,29-0.1,43.5H768.9z"/>
</g>
<g id="XMLID_142_">
	<path id="XMLID_145_" class="st0" d="M895.1,607.1h1.6c0.5-7.6,1.1-15.3,3.2-22.7c0.1,7.5,0.4,15.1,0.6,22.7h1.5
		c0.5-15.2-1.4-30.4-7-44.6c-0.2,6.9,2.4,14.6-2.7,20.3C893.3,590.9,895.2,598.9,895.1,607.1z"/>
</g>
<g id="XMLID_134_">
	<path id="XMLID_143_" class="st0" d="M738.7,607.1c1.5-6.3,2.7-12.6,6.1-18.2c4.1-6.7,2-14.9,2.3-22.4c-4.8,1.1-9.6,2.4-14.3,4
		c-0.7,12.2-0.9,24.4-0.9,36.6H738.7z"/>
	<path id="XMLID_146_" class="st0" d="M791.8,607.1c0.1-8.3-0.2-16.7,0.4-25c4.1,3.3,6.8,7.9,9.4,12.4c1-8.7,0.5-17.4,0.6-26.1
		c-5-1.2-10-2.4-15-3.4c-0.1,14-0.1,28.1-0.1,42.2H791.8z"/>
	<path id="XMLID_136_" class="st0" d="M825.1,607.1h14c0-6.8,0-13.7-0.3-20.5c-4.1-2.7-8.2-5.5-12.6-7.6c-1.5,5.7-1.8,11.6-1.4,17.5
		C825,600,825.1,603.5,825.1,607.1z"/>
</g>
<g id="XMLID_128_">
	<path id="XMLID_135_" class="st0" d="M806.5,607.1c0-1.3,0.1-2.7,0.1-4c-0.2-11.1-0.8-22.3-0.9-33.4c-0.5,12.5-0.6,24.9-0.5,37.4
		L806.5,607.1L806.5,607.1z"/>
</g>
<g id="XMLID_125_">
	<path id="XMLID_127_" class="st0" d="M890.7,573.7c2.4,0.2,2.8,1.3,1.3,3.3C889.5,576.8,889.1,575.7,890.7,573.7z"/>
</g>
<g id="XMLID_114_">
	<path id="XMLID_126_" class="st0" d="M825.1,607.1c0-3.5,0-7.1-0.3-10.7c-0.4-5.9-0.1-11.8,1.4-17.5c-0.7-0.3-2.1-0.9-2.8-1.3
		c0.1,9.8,0.2,19.6,0.3,29.3L825.1,607.1L825.1,607.1z"/>
</g>
<g id="XMLID_68_">
	<path id="XMLID_115_" class="st0" d="M857.2,607.1h4.3c0-0.1,0-0.3,0-0.4c-3.3-4-7-7.5-11.2-10.5c2.5,2.7,5.2,5.4,6.7,8.8
		C857.1,605.8,857.1,606.4,857.2,607.1z"/>
</g>
<g id="XMLID_3_">
</g>
<rect id="XMLID_743_" x="779.6" y="-250.5" class="st1" width="8.6" height="8.8"/>
<g id="XMLID_260_">
	<path id="XMLID_298_" class="st2" d="M451.8,102.2h18v95.7h-40c-4,0-7.3-1.3-10-4c-2.7-2.7-4-6-4-10v-81.7h18V173
		c0,1.8,0.7,3.4,2.1,4.8c1.4,1.4,3,2.1,4.8,2.1h11.1L451.8,102.2L451.8,102.2z"/>
	<path id="XMLID_292_" class="st2" d="M485.6,102.2h40c3.8,0,7.1,1.4,9.9,4.1c2.7,2.7,4.1,6,4.1,9.9V137l-18-4v-5.7
		c0-1.9-0.7-3.6-2-5c-1.3-1.4-3-2.1-4.9-2.1h-11.1v77.7h-18V102.2z"/>
	<path id="XMLID_287_" class="st2" d="M549.7,58.4l18-4v47.8h22c3.8,0,7.1,1.3,9.9,4c2.7,2.7,4.1,6,4.1,10v67.8
		c0,3.8-1.4,7.1-4.1,9.9c-2.7,2.7-6,4.1-9.9,4.1h-40V58.4z M578.6,179.9c1.9,0,3.6-0.7,5-2c1.4-1.3,2.1-3,2.1-4.9v-45.9
		c0-1.9-0.7-3.5-2.1-4.9s-3.1-2-5-2h-10.9v59.7L578.6,179.9L578.6,179.9z"/>
	<path id="XMLID_284_" class="st2" d="M653.8,102.2c3.8,0,7.1,1.4,9.9,4.1c2.7,2.7,4.1,6,4.1,9.9v81.7h-18h-22c-3.8,0-7.1-1.3-9.9-4
		c-2.7-2.7-4.1-6-4.1-10V155c0-3.8,1.4-7.1,4.1-9.9c2.7-2.7,6-4.1,9.9-4.1h14.9c2,0,3.7-0.7,5.1-2s2-3,2-4.9v-7.1
		c0-1.9-0.7-3.5-2-4.9s-3-2-5.1-2h-20.7l4-18H653.8z M638.7,179.9h11.1V159h-11.1c-1.9,0-3.5,0.7-4.9,2s-2,3-2,4.9v7.1
		c0,1.9,0.7,3.5,2,4.9S636.8,179.9,638.7,179.9z"/>
	<path id="XMLID_282_" class="st2" d="M696.7,197.9h-18v-95.7h40c3.8,0,7.1,1.3,9.9,4c2.7,2.7,4.1,5.9,4.1,9.8v81.9h-18v-70.8
		c0-1.9-0.7-3.5-2-4.9s-3-2-4.9-2h-11.1V197.9z"/>
	<path id="XMLID_280_" class="st2" d="M759.5,197.9c-3.8,0-7.1-1.4-9.9-4.1c-2.7-2.7-4.1-6-4.1-9.9v-81.7h18V173
		c0,1.9,0.7,3.5,2,4.9s3,2,4.9,2h11.1v-77.7h18V173c0,1.9,0.7,3.5,2,4.9s3,2,4.9,2h10.9v-77.7h18v95.7h-35.8h-4.2L759.5,197.9
		L759.5,197.9z"/>
	<path id="XMLID_277_" class="st2" d="M867.2,197.9h-18V58.4l18-4v47.8h22c3.8,0,7.1,1.4,9.8,4.1s4,6,4,9.9v81.7h-18v-70.8
		c0-1.9-0.7-3.5-2-4.9s-3-2-4.9-2h-10.9L867.2,197.9L867.2,197.9z"/>
	<path id="XMLID_274_" class="st2" d="M967.1,145.1c0,3.8-1.3,7.1-4,9.9c-2.7,2.7-6,4.1-9.9,4.1h-22v14c0,1.9,0.7,3.5,2,4.9
		s3,2,5.1,2h24.9l4,18h-40c-3.8,0-7.1-1.4-9.9-4.1c-2.7-2.7-4.1-6-4.1-9.9V116c0-3.8,1.4-7.1,4.1-9.8c2.7-2.7,6-4,9.9-4h26
		c3.9,0,7.3,1.3,9.9,4c2.7,2.7,4,5.9,4,9.8V145.1z M949.1,127.1c0-1.9-0.7-3.5-2-4.9s-3-2-4.9-2h-4c-2,0-3.7,0.7-5.1,2s-2,3-2,4.9
		v14h11.1c1.9,0,3.5-0.7,4.9-2s2-3,2-4.9L949.1,127.1L949.1,127.1z"/>
	<path id="XMLID_266_" class="st2" d="M1031.2,145.1c0,3.8-1.3,7.1-4,9.9c-2.7,2.7-6,4.1-9.9,4.1h-22v14c0,1.9,0.7,3.5,2,4.9
		s3,2,5.1,2h24.9l4,18h-40c-3.8,0-7.1-1.4-9.9-4.1c-2.7-2.7-4.1-6-4.1-9.9V116c0-3.8,1.4-7.1,4.1-9.8c2.7-2.7,6-4,9.9-4h26
		c3.9,0,7.3,1.3,9.9,4c2.7,2.7,4,5.9,4,9.8V145.1z M1013.2,127.1c0-1.9-0.7-3.5-2-4.9s-3-2-4.9-2h-4c-2,0-3.7,0.7-5.1,2s-2,3-2,4.9
		v14h11.1c1.9,0,3.5-0.7,4.9-2s2-3,2-4.9V127.1z"/>
	<path id="XMLID_264_" class="st2" d="M1043.3,58.8l18-4v143.1h-18V58.8z"/>
	<path id="XMLID_261_" class="st2" d="M1126.8,132.1h-18v-5c0-1.9-0.7-3.5-2-4.9s-3-2-4.9-2h-4c-1.9,0-3.6,0.7-5,2
		c-1.4,1.3-2.1,3-2.1,4.9v7.1c0,1.9,0.7,3.5,2.1,4.9s3.1,2,5,2h15.1c3.8,0,7.1,1.4,9.8,4.1s4,6,4,9.9v29.7c-0.3,3.7-1.7,6.8-4.4,9.4
		c-2.7,2.5-5.8,3.8-9.4,3.8h-26.2c-3.8,0-7.1-1.4-9.8-4.1s-4-6-4-9.9V168h17.8v5c0,1.9,0.7,3.5,2.1,4.9s3.1,2,5,2h4
		c1.9,0,3.5-0.7,4.9-2s2-3,2-4.9v-7.1c0-1.9-0.7-3.5-2-4.9s-3-2-4.9-2h-15.1c-3.8,0-7.1-1.4-9.8-4.1s-4-6-4-9.9v-28.9
		c0-3.8,1.3-7.1,4-9.9c2.7-2.7,5.9-4.1,9.8-4.1h26.2c3.8,0,7.1,1.4,9.8,4.1s4,6,4,9.9V132.1z"/>
</g>
<path id="XMLID_4_" class="st3" d="M1480,742.4H62.5c-21.1,0-38.3-17.1-38.3-38.3V57.8c0-21.1,17.1-38.3,38.3-38.3H1480
	c21.1,0,38.3,17.1,38.3,38.3v646.4C1518.3,725.3,1501.2,742.4,1480,742.4z"/>
<g>
	<path d="M504.9,706.4v-73.6l9.5-2.1v25.2h12l-2.2,9.5h-9.8v41H504.9z"/>
	<path d="M532.8,706.4c-2,0-3.8-0.7-5.2-2.1c-1.5-1.4-2.2-3.2-2.2-5.3v-15.3c0-2,0.7-3.8,2.2-5.2c1.5-1.5,3.2-2.2,5.2-2.2h7.9
		c1.1,0,2-0.3,2.7-1.1s1.1-1.6,1.1-2.6V669c0-1-0.3-1.9-1.1-2.6s-1.6-1.1-2.7-1.1h-10.9l2.1-9.5h14.7c2,0,3.8,0.7,5.2,2.2
		s2.2,3.2,2.2,5.2v43.2L532.8,706.4L532.8,706.4z M538.6,696.9h5.9v-11h-5.9c-1,0-1.9,0.3-2.6,1.1s-1.1,1.6-1.1,2.6v3.7
		c0,1,0.3,1.9,1.1,2.6C536.7,696.6,537.6,696.9,538.6,696.9z"/>
	<path d="M560,642.4v-9.5l9.5-2.2v9.5L560,642.4z M560.2,706.4v-48.3l9.5-2.2v50.5H560.2z"/>
	<path d="M576.8,706.4V633l9.5-2.1v75.6H576.8z"/>
	<path d="M601.6,706.4c-2.1,0-3.8-0.7-5.3-2.2c-1.4-1.5-2.1-3.2-2.1-5.2v-35.8c0-2,0.7-3.8,2.1-5.2c1.4-1.5,3.2-2.2,5.3-2.2h13.7
		c2,0,3.7,0.7,5.2,2.2c1.4,1.5,2.1,3.2,2.1,5.2v35.8c0,2-0.7,3.8-2.1,5.2c-1.4,1.5-3.1,2.2-5.2,2.2H601.6z M607.3,696.9h2.1
		c1,0,1.9-0.3,2.6-1.1s1.1-1.6,1.1-2.6V669c0-1-0.4-1.9-1.1-2.6s-1.6-1.1-2.6-1.1h-2.1c-1,0-1.9,0.3-2.6,1.1s-1.1,1.6-1.1,2.6v24.3
		c0,1,0.3,1.9,1.1,2.6C605.4,696.6,606.3,696.9,607.3,696.9z"/>
	<path d="M627.7,706.4v-50.5h21.1c2,0,3.8,0.7,5.2,2.2s2.2,3.2,2.2,5.2v11l-9.5-2.1v-3c0-1-0.3-1.9-1.1-2.6s-1.6-1.1-2.6-1.1h-5.9
		v41L627.7,706.4L627.7,706.4z"/>
	<path d="M667.6,706.4c-2,0-3.8-0.7-5.2-2.2s-2.2-3.2-2.2-5.2v-35.9c0-2,0.7-3.7,2.2-5.2c1.5-1.4,3.2-2.1,5.2-2.1h13.7
		c2.1,0,3.8,0.7,5.3,2.1c1.4,1.4,2.1,3.1,2.1,5.2v15.4c0,2-0.7,3.8-2.1,5.2c-1.4,1.5-3.2,2.2-5.3,2.2h-11.6v7.4c0,1,0.3,1.9,1.1,2.6
		s1.6,1.1,2.7,1.1h13.1l2.1,9.5H667.6z M669.8,676.4h5.9c1,0,1.9-0.3,2.6-1.1s1.1-1.6,1.1-2.6V669c0-1-0.3-1.9-1.1-2.6
		s-1.6-1.1-2.6-1.1h-2.1c-1.1,0-2,0.3-2.7,1.1s-1.1,1.6-1.1,2.6V676.4z"/>
	<path d="M702.2,706.4c-2.1,0-3.8-0.7-5.3-2.1s-2.1-3.2-2.1-5.3v-35.8c0-2.1,0.7-3.8,2.1-5.3c1.4-1.4,3.2-2.1,5.3-2.1h11.6v-23
		l9.5-2.2v75.8H702.2z M708,696.9h5.9v-31.5H708c-0.9,0-1.8,0.3-2.5,1c-0.7,0.7-1.1,1.5-1.1,2.6v24.3c0,0.9,0.4,1.8,1.1,2.5
		C706.2,696.6,707,696.9,708,696.9z"/>
	<path d="M745.6,706.4v-73.7l9.5-2.1v25.3h11.6c2,0,3.8,0.7,5.2,2.1c1.5,1.4,2.2,3.2,2.2,5.3v35.8c0,2-0.7,3.8-2.2,5.2
		s-3.2,2.2-5.2,2.2L745.6,706.4L745.6,706.4z M755.1,696.9h5.8c1,0,1.9-0.3,2.6-1.1s1.1-1.6,1.1-2.6V669c0-1-0.4-1.9-1.1-2.6
		s-1.6-1.1-2.6-1.1h-5.8V696.9z"/>
	<path d="M779.1,642.4v-9.5l9.5-2.2v9.5L779.1,642.4z M779.3,706.4v-48.3l9.5-2.2v50.5H779.3z"/>
	<path d="M796.9,706.4v-73.7l9.5-2.2v50.6l9.5-25.3h9.5l-9.5,25.3l9.5,25.3h-9.5l-4.8-12.7l-4.8,12.7L796.9,706.4L796.9,706.4z"/>
	<path d="M835.8,706.4c-2,0-3.8-0.7-5.2-2.2s-2.2-3.2-2.2-5.2v-35.9c0-2,0.7-3.7,2.2-5.2c1.5-1.4,3.2-2.1,5.2-2.1h13.7
		c2.1,0,3.8,0.7,5.3,2.1c1.4,1.4,2.1,3.1,2.1,5.2v15.4c0,2-0.7,3.8-2.1,5.2c-1.4,1.5-3.2,2.2-5.3,2.2h-11.6v7.4c0,1,0.3,1.9,1.1,2.6
		s1.6,1.1,2.7,1.1h13.1l2.1,9.5H835.8z M837.9,676.4h5.9c1,0,1.9-0.3,2.6-1.1s1.1-1.6,1.1-2.6V669c0-1-0.3-1.9-1.1-2.6
		s-1.6-1.1-2.6-1.1h-2.1c-1.1,0-2,0.3-2.7,1.1s-1.1,1.6-1.1,2.6V676.4z"/>
	<path d="M879.2,706.4v-73.6l9.5-2.1v25.2h12l-2.2,9.5h-9.8v41H879.2z"/>
	<path d="M910.9,706.4c-2.1,0-3.8-0.7-5.3-2.2c-1.4-1.5-2.1-3.2-2.1-5.2v-35.8c0-2,0.7-3.8,2.1-5.2c1.4-1.5,3.2-2.2,5.3-2.2h13.7
		c2,0,3.7,0.7,5.2,2.2c1.4,1.5,2.1,3.2,2.1,5.2v35.8c0,2-0.7,3.8-2.1,5.2c-1.4,1.5-3.1,2.2-5.2,2.2H910.9z M916.7,696.9h2.1
		c1,0,1.9-0.3,2.6-1.1s1.1-1.6,1.1-2.6V669c0-1-0.4-1.9-1.1-2.6s-1.6-1.1-2.6-1.1h-2.1c-1,0-1.9,0.3-2.6,1.1S913,668,913,669v24.3
		c0,1,0.3,1.9,1.1,2.6C914.8,696.6,915.6,696.9,916.7,696.9z"/>
	<path d="M946.5,706.4c-2.1,0-3.8-0.7-5.3-2.1c-1.4-1.4-2.1-3.2-2.1-5.3v-43.2h9.5v37.4c0,0.9,0.4,1.8,1.1,2.5
		c0.7,0.7,1.6,1.1,2.5,1.1h5.9v-41h9.5v50.5H946.5z"/>
	<path d="M975.7,706.4v-50.5h21.1c2,0,3.8,0.7,5.2,2.2s2.2,3.2,2.2,5.2v11l-9.5-2.1v-3c0-1-0.3-1.9-1.1-2.6
		c-0.7-0.7-1.6-1.1-2.6-1.1h-5.9v41L975.7,706.4L975.7,706.4z"/>
	<path d="M1016.5,706.4c-2,0-3.7-0.7-5.2-2.2c-1.4-1.5-2.1-3.2-2.1-5.2v-8.4h9.4v2.6c0,1,0.4,1.9,1.1,2.6s1.6,1.1,2.6,1.1h2.1
		c1,0,1.9-0.3,2.6-1.1s1.1-1.6,1.1-2.6v-3.7c0-1-0.3-1.9-1.1-2.6c-0.7-0.7-1.6-1.1-2.6-1.1h-8c-2,0-3.7-0.7-5.2-2.2
		c-1.4-1.5-2.1-3.2-2.1-5.2v-15.3c0-2,0.7-3.8,2.1-5.2c1.4-1.5,3.1-2.2,5.2-2.2h13.8c2,0,3.7,0.7,5.2,2.2c1.4,1.5,2.1,3.2,2.1,5.2
		v8.4h-9.5V669c0-1-0.3-1.9-1.1-2.6c-0.7-0.7-1.6-1.1-2.6-1.1h-2.1c-1,0-1.9,0.3-2.6,1.1s-1.1,1.6-1.1,2.6v3.7c0,1,0.4,1.9,1.1,2.6
		s1.6,1.1,2.6,1.1h8c2,0,3.7,0.7,5.2,2.2c1.4,1.5,2.1,3.2,2.1,5.2v15.7c-0.1,1.9-0.8,3.5-2.2,4.9s-3.1,2.1-5.1,2.1L1016.5,706.4
		L1016.5,706.4z"/>
</g>
</svg>
